# xmcd CD database file
# Copyright (C) 1996 Ti Kan
#
# Track frame offsets:
#	150
#	11425
#	24977
#	40757
#	52560
#	66160
#	78952
#	90087
#	102122
#	115847
#
# Disc length: 1690 seconds
#
# Revision: 2
# Processed by: cddbd v1.4PL0 Copyright (c) Steve Scherf et al.
# Submitted via: Gronk 1.4
#
DISCID=5d06980a
DTITLE=Etta James - The Second Time Around
DYEAR=1900
DGENRE=blues
TTITLE0=Don't Cry Baby
TTITLE1=Fool That I Am
TTITLE2=One For My Baby
TTITLE3=In My Diary
TTITLE4=Seven Day Fool
TTITLE5=It's Too Soon To Know
TTITLE6=Dream
TTITLE7=I'll Dry My Tears
TTITLE8=Plum Nuts
TTITLE9=Don't Get Around Much Anymore
EXTD=
EXTT0=
EXTT1=
EXTT2=
EXTT3=
EXTT4=
EXTT5=
EXTT6=
EXTT7=
EXTT8=
EXTT9=
PLAYORDER=
